<?xml version="1.0" standalone="no"?>
<!DOCTYPE svg PUBLIC "-//W3C//DTD SVG 20010904//EN"
 "http://www.w3.org/TR/2001/REC-SVG-20010904/DTD/svg10.dtd">
<svg version="1.0" xmlns="http://www.w3.org/2000/svg"
 width="393.000000pt" height="393.000000pt" viewBox="0 0 393.000000 393.000000"
 preserveAspectRatio="xMidYMid meet">
<metadata>
Created by potrace 1.11, written by Peter Selinger 2001-2013
</metadata>
<g transform="translate(0.000000,393.000000) scale(0.100000,-0.100000)"
fill="#000000" stroke="none">
<path d="M1887 3924 c-1 -1 -41 -4 -88 -8 -47 -4 -95 -8 -105 -10 -38 -7 -104
-18 -109 -17 -2 0 -19 -5 -37 -10 -18 -5 -46 -12 -63 -15 -105 -18 -363 -124
-511 -210 -474 -274 -832 -782 -928 -1317 -8 -45 -18 -98 -22 -117 -3 -19 -8
-123 -9 -230 -2 -152 2 -222 17 -315 68 -435 258 -802 572 -1109 296 -289 651
-466 1066 -532 14 -2 41 -7 60 -10 19 -4 109 -8 200 -9 244 -4 437 24 655 97
431 144 806 441 1045 827 113 183 222 458 256 649 15 82 20 117 30 217 7 74 7
265 0 328 -4 26 -8 66 -11 89 -3 24 -7 53 -9 64 -2 12 -7 37 -10 55 -33 205
-141 474 -274 684 -280 439 -743 756 -1257 860 -111 23 -245 36 -373 38 -52 1
-94 1 -95 1z m248 -168 c197 -23 355 -62 512 -127 774 -323 1219 -1114 1092
-1944 -15 -96 -34 -171 -75 -295 -34 -104 -49 -139 -57 -130 -5 7 -778 1244
-802 1284 -80 134 -368 586 -373 586 -4 0 -20 -9 -36 -19 -26 -17 -33 -18 -66
-6 l-37 13 -118 -336 c-65 -186 -142 -406 -171 -491 -30 -85 -56 -156 -58
-158 -2 -2 -122 185 -266 417 -262 419 -263 420 -286 405 -29 -19 -53 -19 -78
0 -34 26 -12 58 -211 -300 -60 -107 -191 -342 -433 -775 -17 -30 -43 -78 -59
-106 -15 -28 -75 -134 -133 -237 -58 -103 -115 -207 -127 -232 -13 -25 -27
-45 -32 -45 -14 0 -100 258 -114 345 -3 17 -8 46 -11 65 -21 123 -24 182 -21
325 2 88 6 177 9 198 3 20 8 52 11 70 5 40 10 62 30 140 9 34 18 69 20 77 10
48 54 159 100 257 178 375 466 663 849 851 84 41 284 113 351 127 125 25 255
42 340 44 55 1 100 3 101 4 4 3 95 -1 149 -7z m817 -1751 c300 -478 552 -882
561 -896 16 -25 16 -27 -29 -100 -25 -41 -49 -76 -52 -79 -4 -3 -21 -25 -37
-49 -17 -25 -82 -97 -145 -162 -106 -107 -141 -138 -241 -212 l-36 -27 -184
295 c-101 162 -218 348 -259 415 -41 66 -163 260 -270 432 -107 172 -196 319
-198 329 -2 9 15 65 36 125 48 132 116 329 214 611 56 163 76 209 85 200 6 -7
256 -403 555 -882z m-1377 409 c119 -191 214 -350 213 -354 -2 -4 -39 -47 -83
-95 -44 -49 -87 -96 -96 -106 -15 -17 -19 -15 -79 39 -34 31 -81 73 -103 93
l-40 37 -24 -29 c-24 -27 -26 -28 -53 -14 -16 8 -34 15 -40 15 -5 0 -25 -29
-42 -65 -18 -36 -35 -65 -38 -65 -5 0 -144 172 -188 231 -11 15 6 50 121 256
74 131 154 275 178 320 24 46 47 83 51 83 3 0 104 -156 223 -346z m-532 -626
c55 -68 103 -131 107 -138 6 -10 15 -7 39 13 27 22 36 25 58 16 14 -5 27 -8
28 -7 2 2 19 37 40 78 21 41 39 77 41 79 4 4 56 -40 136 -116 l57 -54 18 24
18 24 31 -23 31 -24 64 71 c35 40 89 98 119 130 l55 59 265 -426 c146 -235
281 -452 301 -483 147 -232 369 -590 374 -603 13 -35 -290 -156 -491 -197
-133 -27 -216 -35 -364 -35 -301 -1 -534 53 -805 186 -101 50 -276 162 -343
221 -77 66 -211 205 -264 272 -56 71 -148 207 -148 218 0 4 19 42 43 84 24 43
81 146 127 228 46 83 92 164 102 180 10 17 22 39 27 50 5 11 22 43 38 71 17
27 43 72 58 100 15 27 43 78 63 113 l35 64 21 -25 c12 -13 65 -81 119 -150z"/>
</g>
</svg>
