<svg xmlns="http://www.w3.org/2000/svg" viewBox="0 0 213.68 27.17"><defs><style>.cls-1{fill:#69c;}</style></defs><title>Asset 2</title><g id="Layer_2" data-name="Layer 2"><g id="Layer_1-2" data-name="Layer 1"><path class="cls-1" d="M31.51,6.89A7.25,7.25,0,0,1,33,8.54V30.6H31.51V9A5.51,5.51,0,0,0,26.87,6.7,5.46,5.46,0,0,0,22.27,9V30.6H20.79V9a5.51,5.51,0,0,0-4.62-2.3A5.47,5.47,0,0,0,11.54,9V30.6H10.07V8.54a7.62,7.62,0,0,1,1.48-1.65,7,7,0,0,1,4.62-1.67,7,7,0,0,1,4.62,1.67,6.92,6.92,0,0,1,.74.7,5.83,5.83,0,0,1,.72-.7,7.26,7.26,0,0,1,9.26,0Z" transform="translate(-10.07 -3.61)"/><path class="cls-1" d="M43.38,22.64,47,19.05a5.66,5.66,0,0,0-8.61.56V27a5.68,5.68,0,0,0,9.11,0l1.44.46a7.12,7.12,0,0,1-1.44,1.63,6.92,6.92,0,0,1-4.55,1.65h0a6.85,6.85,0,0,1-4.54-1.65,6.92,6.92,0,0,1-1.46-1.63V19.18a7.18,7.18,0,0,1,12,0l0,0L44.4,23.68Z" transform="translate(-10.07 -3.61)"/><path class="cls-1" d="M73,17.54a7.62,7.62,0,0,1,1.48,1.65V30.6H73v-11a5.74,5.74,0,0,0-9.19,0v11H62.27v-11a5.76,5.76,0,0,0-9.21,0v11H51.6V19.2a7.25,7.25,0,0,1,1.46-1.65,7.24,7.24,0,0,1,9.21,0,8.55,8.55,0,0,1,.74.72,7.32,7.32,0,0,1,.76-.72,7.22,7.22,0,0,1,9.19,0Z" transform="translate(-10.07 -3.61)"/><path class="cls-1" d="M88.54,17.54A6.92,6.92,0,0,1,90,19.18v8.31a6.92,6.92,0,0,1-1.46,1.63A6.85,6.85,0,0,1,84,30.78h0a7.23,7.23,0,0,1-6-3.29V19.18a7.12,7.12,0,0,1,10.56-1.63Zm0,2.07a5.68,5.68,0,0,0-9.11,0V27a5.68,5.68,0,0,0,9.11,0Z" transform="translate(-10.07 -3.61)"/><path class="cls-1" d="M99.59,16.07v1.46A5.49,5.49,0,0,0,95,19.83V30.6H93.53V19.37A7.25,7.25,0,0,1,95,17.72,7,7,0,0,1,99.59,16.07Z" transform="translate(-10.07 -3.61)"/><path class="cls-1" d="M113.8,16.07v4.62a7.44,7.44,0,0,1-1.48,1.67A7.13,7.13,0,0,1,108.4,24V30.6h-1.48V24a7.11,7.11,0,0,1-3.9-1.65,7.44,7.44,0,0,1-1.48-1.67V16.07H103v4.17a5.79,5.79,0,0,0,9.3,0V16.07Z" transform="translate(-10.07 -3.61)"/><path class="cls-1" d="M138,30.6h-6.12a7.06,7.06,0,0,1-4.66-1.69,7.62,7.62,0,0,1-1.48-1.65V5.4h1.48V26.79a5.51,5.51,0,0,0,4.66,2.34H138Z" transform="translate(-10.07 -3.61)"/><path class="cls-1" d="M146.05,22.64l3.59-3.59a5.66,5.66,0,0,0-8.61.56V27a5.68,5.68,0,0,0,9.11,0l1.44.46a7.12,7.12,0,0,1-1.44,1.63,6.92,6.92,0,0,1-4.55,1.65h0A6.85,6.85,0,0,1,141,29.13a6.92,6.92,0,0,1-1.46-1.63V19.18a7.18,7.18,0,0,1,12,0l0,0-4.52,4.52Z" transform="translate(-10.07 -3.61)"/><path class="cls-1" d="M164.75,17.54a7.25,7.25,0,0,1,1.46,1.65V30.6h-6.06a7.28,7.28,0,0,1-6.06-3.3V19.2a7.25,7.25,0,0,1,1.46-1.65,7.24,7.24,0,0,1,9.21,0Zm0,2.11a5.76,5.76,0,0,0-9.21,0v7.17a5.48,5.48,0,0,0,4.61,2.32h4.61Z" transform="translate(-10.07 -3.61)"/><path class="cls-1" d="M180.59,20.69a7.44,7.44,0,0,1-1.48,1.67,7.53,7.53,0,0,1-1.46.93,7.09,7.09,0,0,1,1.46.95,7.44,7.44,0,0,1,1.48,1.67V30.6h-1.48V26.37A5.51,5.51,0,0,0,174.47,24h-3.13V30.6h-1.48V5.4h1.48V22.55h3.13a5.56,5.56,0,0,0,4.64-2.34V16h1.48Z" transform="translate(-10.07 -3.61)"/><path class="cls-1" d="M192,12.07a1.07,1.07,0,0,1-.11-1.48l2.74-3.28a1,1,0,1,1,1.58,1.33l-2.74,3.28a1.16,1.16,0,0,1-.79.36A1.27,1.27,0,0,1,192,12.07Zm1.69,18.54a1.06,1.06,0,0,1-1-1,1,1,0,0,1,1-1h3.53V4.65a1,1,0,1,1,2,0v23.9h3.53a1,1,0,0,1,1,1,1,1,0,0,1-1,1Z" transform="translate(-10.07 -3.61)"/><path class="cls-1" d="M206.71,30.46a1.06,1.06,0,0,1-.36-1.44l14.51-23.4H207.22a1,1,0,0,1-1-1,1,1,0,0,1,1-1H222.7a1,1,0,0,1,.9.54,1,1,0,0,1,0,1L208.08,30.1a.91.91,0,0,1-.86.5A.83.83,0,0,1,206.71,30.46Z" transform="translate(-10.07 -3.61)"/></g></g></svg>